<?xml version="1.0" encoding="UTF-8"?>
<svg version="1.1" viewBox="0 0 1024 1024" width="1024" height="1024" xmlns="http://www.w3.org/2000/svg">
<path transform="translate(0)" d="m0 0h1024v1024h-1024z" fill="#FEFFFE"/>
<path transform="translate(486,354)" d="m0 0h34v211h-32l-1-1v-20l-1 1-9 10-8 6-11 5-9 2h-19l-12-3-14-7-10-9-8-10-7-15-3-12-1-7v-27l4-20 5-12 6-10 9-10 9-7 11-5 14-3h13l14 3 11 6 10 8 5 6z"/>
<path transform="translate(279,412)" d="m0 0h28l16 4 12 6 10 9 6 10 4 13 1 110-1 1h-33l-1-1v-18l-9 10-11 7-13 4-15 1-13-2-11-4-9-6-9-10-5-11-1-5v-16l4-12 7-9 8-7 11-5 13-3 53-5-1-18-3-7-5-5-10-4h-17l-9 3-7 6-5 10h-33l1-7 5-12 7-10 9-8 11-5z"/>
<path transform="translate(535,414)" d="m0 0h35l10 31 23 72 5 16 1 1 16-49 18-57 4-13 1-1h34l-2 9-18 50-22 61-17 46-8 16-6 8-7 6-14 7-10 2h-26v-27l16-1 10-3 6-5 4-11-1-9-19-54-33-92z"/>
<path transform="translate(711,378)" d="m0 0h33v36h30v28h-30l1 85 3 7 6 4 3 1h11l5-1v27l-8 1h-21l-12-3-8-4-7-8-5-12-1-6v-91h-21v-28h21z"/>
<path transform="translate(443,440)" d="m0 0h11l12 4 8 6 5 6 5 12 3 14v16l-3 16-4 9-7 8-9 6-10 3h-14l-10-4-8-7-6-8-5-12-1-6v-24l3-12 7-14 9-8 9-4z" fill="#FEFFFE"/>
<path transform="translate(313,497)" d="m0 0h9l-1 16-4 11-4 6-8 6-10 4-6 1h-11l-10-3-6-5-3-7v-10l4-8 5-4 8-3 14-2z" fill="#FEFFFE"/>
<path transform="translate(806,521)" d="m0 0 10 2 7 6 3 5 1 4v9l-3 7-5 6-7 3h-11l-8-4-5-6-2-6v-9l4-9 6-5 4-2z"/>
</svg>
